<?xml version="1.0" ?><svg style="enable-background:new 0 0 24 24;" version="1.1" viewBox="0 0 24 24" xml:space="preserve" xmlns="http://www.w3.org/2000/svg" xmlns:xlink="http://www.w3.org/1999/xlink"><style type="text/css">
	.st0{display:none;}
	.st1{display:inline;}
	.st2{opacity:0.2;fill:none;stroke:#000000;stroke-width:5.000000e-02;stroke-miterlimit:10;}
</style><g class="st0" id="grid_system"/><g id="_icons"><path d="M7.8,13H11v3.2c0,0.6,0.4,1,1,1s1-0.4,1-1V13h3.2c0.6,0,1-0.4,1-1s-0.4-1-1-1H13V7.8c0-0.6-0.4-1-1-1s-1,0.4-1,1V11H7.8   c-0.6,0-1,0.4-1,1S7.2,13,7.8,13z"/><path d="M3,12c0,5,4,9,9,9s9-4,9-9s-4-9-9-9S3,7,3,12z M12,5c3.9,0,7,3.1,7,7s-3.1,7-7,7s-7-3.1-7-7S8.1,5,12,5z"/></g></svg>