<?xml version="1.0" encoding="UTF-8"?>
<svg id="Layer_1" data-name="Layer 1" xmlns="http://www.w3.org/2000/svg" xmlns:xlink="http://www.w3.org/1999/xlink" viewBox="0 0 565.14 148.01">
  <defs>
    <style>
      .cls-1, .cls-2 {
        fill: #fff;
      }

      .cls-3, .cls-4, .cls-5, .cls-2 {
        stroke-miterlimit: 10;
      }

      .cls-3, .cls-4, .cls-2 {
        stroke: #fff;
      }

      .cls-3, .cls-5, .cls-6 {
        fill: #f5d051;
      }

      .cls-4, .cls-7 {
        fill: none;
      }

      .cls-8 {
        clip-path: url(#clippath-1);
      }

      .cls-5 {
        stroke: #f5d051;
        stroke-width: 4px;
      }

      .cls-9 {
        clip-path: url(#clippath);
      }

      .cls-10 {
        fill: #231f20;
      }
    </style>
    <clipPath id="clippath">
      <rect class="cls-7" width="183" height="148.01"/>
    </clipPath>
    <clipPath id="clippath-1">
      <rect class="cls-7" x="199.14" y="52.48" width="365.99" height="68.62"/>
    </clipPath>
  </defs>
  <g class="cls-9">
    <g>
      <path class="cls-3" d="M38.34,92.24L120.3,10.09c11.64-11.67,30.52-11.65,42.14,0l10.51,10.53c11.64,11.67,11.62,30.59,0,42.24l-81.96,82.16-52.65-52.77Z"/>
      <path class="cls-3" d="M60.72,13.14l71.13,71.3c5.98,5.99,5.98,15.71,0,21.71l-39.88,39.97L10.01,63.96C-1.63,52.3-1.61,33.37,10.01,21.72l8.54-8.57C30.2,1.49,49.08,1.51,60.7,13.16l.02-.02Z"/>
      <path class="cls-2" d="M67.97,71.37c-5.66,5.67-16.03,4.57-23.05-2.46l-1.15-1.15c-7.02-7.03,13.6-27.7,20.62-20.67l1.15,1.15c7.02,7.03,8.11,17.44,2.45,23.1l-.03,.03Z"/>
      <path class="cls-2" d="M20.14,40.63l-.28,.28c-.8,.8-.8,2.11,0,2.91l28.56,28.63c.8,.8,2.1,.8,2.9,0l.28-.28c.8-.8,.8-2.11,0-2.91l-28.56-28.63c-.8-.8-2.1-.8-2.9,0Z"/>
      <path class="cls-2" d="M65.84,66.73l-2.49,2.5c-.8,.8-.8,2.11,0,2.91l38.91,39.01c.8,.8,2.1,.8,2.9,0l2.49-2.5c.8-.8,.8-2.11,0-2.91l-38.91-39.01c-.8-.8-2.1-.8-2.9,0Z"/>
      <path class="cls-1" d="M48.92,72.95s33.29,14.98,20.62-20.67l-20.62,20.67Z"/>
      <path class="cls-4" d="M48.92,72.95s33.29,14.98,20.62-20.67"/>
      <path class="cls-2" d="M37.57,23.13l-.28,.28c-.8,.8-.8,2.11,0,2.91l28.56,28.63c.8,.8,2.1,.8,2.9,0l.28-.28c.8-.8,.8-2.11,0-2.91l-28.56-28.63c-.8-.8-2.1-.8-2.9,0Z"/>
      <path class="cls-2" d="M28.71,31.75l-.28,.28c-.8,.8-.8,2.11,0,2.91l27.73,27.8c.8,.8,2.1,.8,2.9,0l.28-.28c.8-.8,.8-2.11,0-2.91L31.61,31.75c-.8-.8-2.1-.8-2.9,0Z"/>
      <path class="cls-5" d="M21.18,35.07l1.77-1.78,24.05,24.11c.49,.49,.49,1.29,0,1.78-.49,.49-1.28,.49-1.77,0l-24.05-24.11h0Z"/>
      <path class="cls-5" d="M29.26,25.65l1.77-1.78,24.05,24.11c.49,.49,.49,1.29,0,1.78-.49,.49-1.28,.49-1.77,0L29.26,25.65Z"/>
      <path class="cls-2" d="M138.23,47.38l-2.49-2.5c-.8-.8-2.1-.8-2.9,0l-18.82,18.87c-.8,.8-.8,2.11,0,2.91l2.49,2.5c.8,.8,2.1,.8,2.9,0l18.83-18.87c.8-.8,.8-2.11,0-2.91Z"/>
      <path class="cls-2" d="M154.66,54.24c9.47-9.49,11.38-22.97,4.26-30.1-7.12-7.13-20.56-5.22-30.03,4.27-9.47,9.49-11.38,22.97-4.26,30.1,7.12,7.13,20.56,5.22,30.03-4.27Z"/>
    </g>
  </g>
  <g class="cls-8">
    <g>
      <path class="cls-6" d="M204,84.33l22.34-3.15c-.21-2.47-1.1-4.54-2.67-6.19-1.57-1.65-3.79-2.49-6.66-2.49s-5.43,1.05-7.37,3.15c-1.94,2.11-2.91,5.12-2.91,9.06l.07,2.92c.42,3.73,1.75,6.55,4,8.44,2.25,1.89,5.23,2.84,8.94,2.84,2.2,0,4.21-.34,6.03-1.02,1.83-.69,3.27-1.45,4.31-2.29,.63,.42,1.15,.94,1.57,1.54,.41,.6,.63,1.27,.63,2.01,0,1.16-.59,2.21-1.76,3.15-1.17,.95-2.73,1.68-4.67,2.21-1.94,.53-4.13,.79-6.59,.79-4.08,0-7.62-.75-10.63-2.25-3.01-1.5-5.34-3.73-7.02-6.71-1.67-2.97-2.51-6.61-2.51-10.92,0-3.1,.46-5.84,1.38-8.24,.91-2.39,2.19-4.39,3.8-5.99,1.62-1.6,3.52-2.83,5.73-3.66,2.19-.84,4.55-1.26,7.05-1.26,3.29,0,6.19,.69,8.7,2.05,2.51,1.36,4.48,3.28,5.92,5.75,1.44,2.47,2.16,5.29,2.16,8.44,0,1.32-.31,2.27-.94,2.88-.63,.6-1.51,.98-2.67,1.14l-25.95,3.71-.31-5.92h0Z"/>
      <path class="cls-6" d="M255.82,66.28c4.8,0,8.63,1.05,11.48,3.15,2.85,2.11,4.27,5.44,4.27,10.01v18.45c0,1.21-.26,2.14-.78,2.8-.53,.66-1.23,1.28-2.11,1.86-1.35,.73-3.13,1.38-5.29,1.93-2.17,.56-4.61,.83-7.33,.83-5.07,0-9.03-.98-11.88-2.96-2.85-1.97-4.27-4.88-4.27-8.71,0-3.47,1.12-6.12,3.38-7.96,2.25-1.84,5.43-2.97,9.56-3.39l10.98-1.1v-1.82c0-2.37-.76-4.09-2.28-5.17-1.51-1.08-3.58-1.61-6.19-1.61-2.09,0-4.11,.29-6.08,.87-1.96,.58-3.7,1.26-5.21,2.05-.47-.42-.89-.94-1.25-1.54-.37-.6-.54-1.22-.54-1.86,0-1.68,.89-2.92,2.67-3.7,1.41-.69,3.07-1.21,4.98-1.58,1.91-.37,3.88-.55,5.92-.55h0Zm.24,32.79c1.88,0,3.49-.19,4.82-.59,1.33-.39,2.32-.8,2.94-1.22v-10.17l-8.78,.87c-2.41,.21-4.21,.76-5.41,1.65-1.2,.89-1.81,2.18-1.81,3.87s.68,3.1,2.04,4.1c1.35,1,3.42,1.5,6.2,1.5h0Z"/>
      <path class="cls-6" d="M282.4,85.67v-28.55c.31-.1,.81-.22,1.49-.35,.68-.13,1.41-.19,2.19-.19,1.41,0,2.47,.28,3.17,.83,.7,.55,1.06,1.48,1.06,2.8v25.48h-7.92Zm7.91-2.29v10.09c0,1.95,.56,3.31,1.69,4.1,1.12,.79,2.66,1.18,4.58,1.18,.89,0,1.84-.13,2.86-.39,1.02-.26,1.89-.58,2.63-.95,.37,.37,.68,.82,.94,1.34,.26,.53,.39,1.16,.39,1.89,0,1.32-.69,2.4-2.07,3.27s-3.44,1.3-6.15,1.3c-3.86,0-6.96-.87-9.29-2.61-2.32-1.73-3.49-4.6-3.49-8.59v-10.65h7.91Zm-3.45-15.29h15.68c.21,.32,.41,.76,.59,1.35,.18,.58,.28,1.18,.28,1.82,0,1.1-.26,1.93-.78,2.49-.52,.56-1.23,.83-2.11,.83h-13.64v-6.47h0Z"/>
      <path class="cls-10" d="M324.05,82.52v-26.1c.37-.1,.9-.24,1.61-.4,.71-.16,1.45-.23,2.23-.23,1.47,0,2.56,.28,3.29,.83,.73,.55,1.1,1.54,1.1,2.96v22.94h-8.23Zm8.23-8.36v29.89c-.41,.1-.97,.23-1.65,.39-.68,.16-1.41,.23-2.19,.23-1.51,0-2.63-.31-3.33-.91-.7-.6-1.06-1.57-1.06-2.88v-26.72h8.24Zm-3.92,9.21v-6.71h30.58v6.71h-30.58Zm26.11-.87v-26.09c.31-.1,.84-.24,1.57-.4,.73-.16,1.47-.23,2.19-.23,1.51,0,2.63,.29,3.33,.87,.7,.58,1.06,1.58,1.06,3v22.87h-8.15v-.02Zm8.15-8.36v29.9c-.37,.1-.89,.23-1.57,.39-.68,.16-1.41,.23-2.2,.23-1.51,0-2.63-.31-3.33-.91-.71-.6-1.06-1.57-1.06-2.88v-26.72h8.15v-.02Z"/>
      <path class="cls-10" d="M375.67,84.33l22.34-3.15c-.21-2.47-1.1-4.54-2.67-6.19-1.57-1.65-3.79-2.49-6.67-2.49s-5.43,1.05-7.37,3.15c-1.94,2.11-2.9,5.12-2.9,9.06l.07,2.92c.42,3.73,1.75,6.55,3.99,8.44,2.25,1.89,5.23,2.84,8.94,2.84,2.2,0,4.21-.34,6.03-1.02,1.83-.69,3.27-1.45,4.31-2.29,.63,.42,1.15,.94,1.57,1.54,.41,.6,.63,1.27,.63,2.01,0,1.16-.59,2.21-1.76,3.15-1.18,.95-2.73,1.68-4.67,2.21-1.94,.53-4.13,.79-6.59,.79-4.08,0-7.62-.75-10.63-2.25-3.01-1.5-5.34-3.73-7.02-6.71-1.67-2.97-2.51-6.61-2.51-10.92,0-3.1,.46-5.84,1.38-8.24,.91-2.39,2.19-4.39,3.8-5.99,1.62-1.6,3.52-2.83,5.73-3.66,2.19-.84,4.55-1.26,7.06-1.26,3.29,0,6.19,.69,8.71,2.05,2.51,1.36,4.48,3.28,5.92,5.75,1.44,2.47,2.16,5.29,2.16,8.44,0,1.32-.31,2.27-.94,2.88-.63,.6-1.51,.98-2.67,1.14l-25.95,3.71-.31-5.92h0Z"/>
      <path class="cls-10" d="M427.49,66.28c4.81,0,8.63,1.05,11.48,3.15,2.85,2.11,4.27,5.44,4.27,10.01v18.45c0,1.21-.26,2.14-.78,2.8-.53,.66-1.23,1.28-2.11,1.86-1.36,.73-3.13,1.38-5.29,1.93-2.17,.56-4.61,.83-7.33,.83-5.07,0-9.03-.98-11.88-2.96-2.85-1.97-4.27-4.88-4.27-8.71,0-3.47,1.12-6.12,3.38-7.96,2.25-1.84,5.43-2.97,9.56-3.39l10.98-1.1v-1.82c0-2.37-.76-4.09-2.28-5.17-1.51-1.08-3.58-1.61-6.19-1.61-2.09,0-4.11,.29-6.08,.87-1.96,.58-3.7,1.26-5.21,2.05-.47-.42-.89-.94-1.25-1.54-.37-.6-.54-1.22-.54-1.86,0-1.68,.89-2.92,2.67-3.7,1.41-.69,3.07-1.21,4.98-1.58s3.88-.55,5.92-.55h0Zm.24,32.79c1.88,0,3.49-.19,4.82-.59,1.33-.39,2.32-.8,2.94-1.22v-10.17l-8.78,.87c-2.41,.21-4.2,.76-5.41,1.65-1.2,.89-1.81,2.18-1.81,3.87s.68,3.1,2.04,4.1c1.36,1,3.42,1.5,6.2,1.5h0Z"/>
      <path class="cls-10" d="M451.76,87.41V53.02c.31-.1,.81-.22,1.49-.35,.68-.13,1.38-.19,2.11-.19,1.51,0,2.61,.26,3.29,.79,.68,.53,1.02,1.48,1.02,2.84v31.93l-7.91-.63h0Zm7.91-3.31v19.95c-.31,.1-.79,.23-1.45,.39-.66,.16-1.38,.23-2.16,.23-1.47,0-2.55-.28-3.26-.83-.7-.56-1.06-1.51-1.06-2.88v-17.59l7.91,.71h0Z"/>
      <path class="cls-10" d="M469.04,86.11v-28.55c.31-.1,.81-.22,1.49-.35,.67-.13,1.41-.19,2.19-.19,1.41,0,2.47,.28,3.17,.83,.7,.55,1.06,1.48,1.06,2.8v25.48h-7.92Zm7.91-2.29v10.09c0,1.95,.56,3.31,1.69,4.1,1.12,.79,2.66,1.18,4.58,1.18,.89,0,1.84-.13,2.86-.39,1.02-.26,1.89-.58,2.63-.95,.37,.37,.68,.82,.94,1.34,.26,.53,.4,1.16,.4,1.89,0,1.32-.69,2.4-2.07,3.27-1.38,.87-3.44,1.3-6.15,1.3-3.86,0-6.96-.87-9.29-2.61-2.32-1.73-3.49-4.6-3.49-8.59v-10.65h7.9Zm-3.45-15.29h15.68c.21,.32,.41,.76,.59,1.35,.19,.58,.28,1.18,.28,1.82,0,1.1-.26,1.93-.78,2.49-.52,.56-1.23,.83-2.11,.83h-13.64v-6.47h0Z"/>
      <path class="cls-10" d="M495.7,88.14V53.76c.37-.1,.89-.22,1.57-.35,.68-.13,1.41-.19,2.2-.19,1.47,0,2.54,.26,3.21,.79,.68,.53,1.02,1.48,1.02,2.84v31.3h-8Zm8-4.02v20.66c-.31,.1-.79,.23-1.45,.39-.66,.16-1.37,.23-2.16,.23-1.47,0-2.56-.28-3.29-.83-.73-.56-1.1-1.51-1.1-2.88v-17.59h8Zm16.86,5.06v-7.25c0-2.89-.8-5.02-2.39-6.39-1.6-1.36-3.62-2.05-6.08-2.05-1.94,0-3.71,.37-5.33,1.1-1.62,.73-3.01,1.6-4.15,2.61l-.86-6.47c1.25-.84,2.86-1.67,4.82-2.49,1.96-.82,4.22-1.22,6.78-1.22,4.49,0,8.14,1.21,10.94,3.63s4.2,6.07,4.2,10.96v7.57h-7.93Zm7.91-4.88v20.5c-.31,.1-.81,.23-1.49,.39-.68,.16-1.38,.23-2.11,.23-1.47,0-2.55-.28-3.26-.83-.71-.56-1.06-1.51-1.06-2.88v-17.51l7.91,.07h0Z"/>
      <path class="cls-10" d="M540.59,97.6c-.84-1.73-1.84-3.97-3.02-6.7-1.17-2.74-2.39-5.84-3.64-9.31-1.26-3.47-2.45-7.17-3.61-11.11,.42-.58,1.01-1.05,1.76-1.42,.76-.37,1.58-.55,2.47-.55,1.1,0,2.01,.28,2.75,.83,.73,.55,1.31,1.48,1.73,2.8,1.41,4.26,2.9,8.48,4.46,12.65,1.57,4.18,3.27,8.48,5.09,12.9h.31c1.04-2.26,2.11-4.99,3.21-8.2,1.1-3.21,2.16-6.57,3.17-10.09,1.02-3.53,1.84-6.87,2.47-10.01,.53-.26,1.06-.47,1.61-.63,.55-.16,1.16-.23,1.84-.23,1.1,0,2.03,.26,2.79,.79,.76,.53,1.13,1.36,1.13,2.52,0,1.05-.22,2.59-.66,4.61-.44,2.02-1.07,4.32-1.88,6.9-.81,2.58-1.73,5.27-2.74,8.08-1.02,2.81-2.13,5.56-3.33,8.24-1.2,2.68-2.41,5.1-3.61,7.25-2.51,4.63-4.82,8.15-6.94,10.57-2.11,2.42-4.11,3.63-6,3.63-1.41,0-2.54-.39-3.37-1.18-.84-.79-1.33-1.76-1.49-2.92,1.1-1,2.32-2.26,3.68-3.79s2.67-3.16,3.96-4.93c1.28-1.76,2.34-3.43,3.17-5.01-.89-.26-1.75-.78-2.58-1.54-.84-.76-1.75-2.14-2.75-4.14v-.02Z"/>
      <path class="cls-6" d="M307.25,101.17c0-1.48,.46-2.71,1.37-3.71,.91-1,2.19-1.49,3.8-1.49s2.79,.5,3.68,1.49c.89,1,1.34,2.24,1.34,3.71s-.44,2.63-1.34,3.63c-.89,1-2.11,1.49-3.68,1.49s-2.89-.5-3.8-1.49c-.91-1-1.37-2.21-1.37-3.63h0Z"/>
    </g>
  </g>
</svg>